<?xml version="1.0" standalone="no"?><!DOCTYPE svg PUBLIC "-//W3C//DTD SVG 1.1//EN" "http://www.w3.org/Graphics/SVG/1.1/DTD/svg11.dtd"><svg t="1608057127804" class="icon" viewBox="0 0 1024 1024" version="1.1" xmlns="http://www.w3.org/2000/svg" p-id="1954" xmlns:xlink="http://www.w3.org/1999/xlink" width="200" height="200"><defs><style type="text/css"></style></defs><path d="M99.33 502.74c0 88.25 6.43 176.5 19.28 264.14l0.04 0.26c4.81 30.68 21.45 61.57 46.85 86.98 25.41 25.41 56.3 42.05 86.98 46.85l0.26 0.04a1818.793 1818.793 0 0 0 528.28 0l0.26-0.04c30.68-4.81 61.57-21.44 86.98-46.85 25.41-25.41 42.05-56.3 46.85-86.98l0.04-0.26a1818.793 1818.793 0 0 0 0-528.28l-0.04-0.26c-4.81-30.68-21.44-61.57-46.85-86.98s-56.3-42.05-86.98-46.85l-0.26-0.04a1818.793 1818.793 0 0 0-528.28 0l-0.26 0.04c-30.68 4.81-61.57 21.44-86.98 46.85-25.41 25.41-42.05 56.3-46.85 86.98l-0.04 0.26a1820.244 1820.244 0 0 0-19.28 264.14z m73.68 256.02c-24.91-169.89-24.91-342.15 0-512.05 6.3-39.74 48.12-81.56 87.86-87.86 169.87-24.9 342.16-24.9 512.03 0 39.75 6.3 81.57 48.12 87.86 87.86 24.9 169.87 24.9 342.16 0 512.03-6.3 39.74-48.12 81.57-87.86 87.86a1764.188 1764.188 0 0 1-512.03 0c-39.74-6.28-81.56-48.1-87.86-87.84z" fill="#64A0CF" p-id="1955"></path><path d="M426.91 709.54c-11.25 0-22.51-2.96-32.77-8.88-20.52-11.85-32.77-33.06-32.77-56.76V391.72c0-23.69 12.25-44.91 32.77-56.76 20.52-11.85 45.02-11.85 65.54 0l218.39 126.09c20.52 11.85 32.77 33.06 32.77 56.76 0 23.69-12.25 44.91-32.77 56.76L459.68 700.65c-10.26 5.93-21.52 8.89-32.77 8.89z m0-323.41c-0.92 0-1.85 0.27-2.77 0.8-1.84 1.06-2.77 2.67-2.77 4.79V643.9c0 2.12 0.93 3.73 2.77 4.8 1.84 1.06 3.7 1.06 5.54 0l218.39-126.09c1.84-1.06 2.77-2.67 2.77-4.8s-0.93-3.73-2.77-4.8L429.68 386.93c-0.92-0.53-1.85-0.8-2.77-0.8z" fill="#9EEFD9" p-id="1956"></path></svg>